# xmcd
#
# Track frame offsets:
#	182
#	37797
#	49607
#	63797
#	94790
#	110157
#	119865
#	136205
#	148302
#	164160
#
# Disc length: 3021 seconds
#
# Revision: 2
# Processed by: cddbd v1.5.2PL0 Copyright (c) Steve Scherf et al.
# Submitted via: EasyCDDAExtractor 16.0.0.1
#
DISCID=950bcb0a
DTITLE=Autori Classica  - Le Grandi Melodie Vol. 30
DYEAR=1900
DGENRE=
TTITLE0=LA CENERENTOLA Sinfonia
TTITLE1=TURANDOT Signore, ascolta
TTITLE2=CONCERTO PER DUE TROMBE Allegro
TTITLE3=LA BELLA ADDORMENTATA Danza delle fate
TTITLE4=APRILE
TTITLE5=VALZER op. 64 n.1
TTITLE6=I VESPRI SICILIANI Merce‚ dilette amiche
TTITLE7=THE ENTERTAINER
TTITLE8=LA MAZURKA BLU Duetto della mazurka
TTITLE9=TANNHAUSER Ouverture
EXTD=
EXTT0=
EXTT1=
EXTT2=
EXTT3=
EXTT4=
EXTT5=
EXTT6=
EXTT7=
EXTT8=
EXTT9=
PLAYORDER=
